<?xml version="1.0" encoding="iso-8859-1"?>
<!-- Generator: Adobe Illustrator 19.0.0, SVG Export Plug-In . SVG Version: 6.00 Build 0)  -->
<svg version="1.1" id="Layer_1" xmlns="http://www.w3.org/2000/svg" xmlns:xlink="http://www.w3.org/1999/xlink" x="0px" y="0px"
	 viewBox="0 0 512 512" style="enable-background:new 0 0 512 512;" xml:space="preserve">
<circle style="fill:#D35B38;" cx="253.919" cy="258.081" r="183.626"/>
<circle style="fill:#BCC987;" cx="253.919" cy="258.081" r="63.439"/>
<path style="fill:#FFAD61;" d="M413.665,98.335L413.665,98.335c-14.777-14.777-14.777-38.735,0-53.511l34.624-34.624l14.165,39.346
	l39.346,14.165l-34.624,34.624C452.4,113.111,428.442,113.111,413.665,98.335z"/>
<g>
	<path style="fill:#4D3D36;" d="M440.42,119.594c12.302,0,24.603-4.682,33.968-14.046l34.624-34.624
		c2.469-2.469,3.503-6.03,2.742-9.437c-0.761-3.408-3.213-6.188-6.498-7.371l-24.225-8.721l10.669-10.669
		c3.983-3.983,3.983-10.441,0-14.425c-3.984-3.982-10.44-3.982-14.425,0l-10.669,10.669l-8.72-24.224
		c-1.183-3.285-3.964-5.737-7.372-6.499c-3.411-0.762-6.968,0.274-9.437,2.742l-34.624,34.624
		c-9.073,9.073-14.07,21.137-14.07,33.967c0,9.36,2.67,18.303,7.629,25.983l-16.509,16.509
		c-31.999-28.822-73.614-47.163-119.385-49.548V14.361c0-5.633-4.567-10.199-10.199-10.199c-5.632,0-10.199,4.566-10.199,10.199
		v50.164c-98.773,5.146-178.21,84.583-183.355,183.357H10.199C4.567,247.881,0,252.448,0,258.081
		c0,5.633,4.567,10.199,10.199,10.199h50.165c5.146,98.774,84.583,178.211,183.356,183.357v50.164
		c0,5.633,4.567,10.199,10.199,10.199s10.199-4.566,10.199-10.199v-50.165c98.775-5.146,178.212-84.583,183.357-183.357h50.165
		c5.632,0,10.199-4.566,10.199-10.199s-4.567-10.199-10.199-10.199h-50.165c-2.385-45.772-20.726-87.386-49.549-119.385
		l16.516-16.516C422.325,117.05,431.37,119.594,440.42,119.594z M483.224,67.862l-23.26,23.26
		c-8.23,8.23-20.397,10.168-30.491,5.827l35.616-35.616L483.224,67.862z M412.782,71.579c0-7.382,2.874-14.323,8.096-19.544
		l23.26-23.26l6.527,18.134l-35.627,35.627C413.563,79.122,412.782,75.412,412.782,71.579z M369.061,128.514l-70.815,70.815
		c-9.772-7.391-21.438-12.393-34.128-14.16V84.962C304.269,87.303,340.791,103.363,369.061,128.514z M307.154,258.081
		c0,29.354-23.881,53.235-53.235,53.235s-53.234-23.881-53.234-53.235s23.88-53.235,53.234-53.235c10.998,0,21.228,3.352,29.72,9.09
		l-36.933,36.933c-3.983,3.983-3.983,10.441,0,14.425c1.992,1.991,4.602,2.987,7.212,2.987c2.61,0,5.22-0.996,7.212-2.987
		l36.933-36.933C303.802,236.853,307.154,247.083,307.154,258.081z M243.72,84.962V185.17
		c-32.454,4.519-58.192,30.258-62.711,62.711H80.802C85.904,160.36,156.199,90.064,243.72,84.962z M80.802,268.28h100.207
		c4.518,32.454,30.257,58.193,62.711,62.712v100.207C156.199,426.096,85.904,355.801,80.802,268.28z M264.119,431.198V330.991
		c32.454-4.518,58.193-30.258,62.712-62.712h100.207C421.936,355.801,351.64,426.096,264.119,431.198z M427.038,247.881H326.83
		c-1.767-12.69-6.768-24.356-14.16-34.128l70.815-70.815C408.637,171.209,424.697,207.731,427.038,247.881z"/>
	<path style="fill:#4D3D36;" d="M288.219,395.716c-5.467,1.358-8.798,6.89-7.44,12.356c1.152,4.642,5.314,7.743,9.89,7.743
		c0.814,0,1.641-0.098,2.466-0.303c39.216-9.739,73.23-33.7,95.777-67.47c3.128-4.684,1.865-11.018-2.819-14.146
		c-4.682-3.126-11.017-1.866-14.145,2.819C352.229,366.25,322.493,387.204,288.219,395.716z"/>
	<path style="fill:#4D3D36;" d="M392.875,320.635c1.173,0.437,2.374,0.644,3.556,0.644c4.139,0,8.031-2.539,9.56-6.645
		c1.197-3.217,2.305-6.515,3.293-9.802c1.621-5.395-1.438-11.081-6.833-12.703c-5.39-1.62-11.08,1.438-12.702,6.833
		c-0.863,2.87-1.83,5.749-2.874,8.557C384.91,312.798,387.596,318.67,392.875,320.635z"/>
</g>
<g>
</g>
<g>
</g>
<g>
</g>
<g>
</g>
<g>
</g>
<g>
</g>
<g>
</g>
<g>
</g>
<g>
</g>
<g>
</g>
<g>
</g>
<g>
</g>
<g>
</g>
<g>
</g>
<g>
</g>
</svg>
